<?xml version="1.0" standalone="no"?><!DOCTYPE svg PUBLIC "-//W3C//DTD SVG 1.1//EN" "http://www.w3.org/Graphics/SVG/1.1/DTD/svg11.dtd"><svg height="100" node-id="1" sillyvg="true" template-height="100" template-width="100" version="1.1" viewBox="0 0 100 100" width="100" xmlns="http://www.w3.org/2000/svg" xmlns:xlink="http://www.w3.org/1999/xlink"><defs node-id="433"><linearGradient gradientUnits="userSpaceOnUse" id="SVGID_60_" node-id="356" spreadMethod="pad" x1="74.6579" x2="66.341" y1="43.7636" y2="42.2971"><stop offset="0.1554" stop-color="#f7ba31"></stop><stop offset="0.1645" stop-color="#f7bb32"></stop><stop offset="0.3118" stop-color="#f9c13c"></stop><stop offset="0.4969" stop-color="#f9c33f"></stop><stop offset="0.5596" stop-color="#fac644"></stop><stop offset="0.7867" stop-color="#fcce51"></stop><stop offset="1" stop-color="#fdd155"></stop></linearGradient><linearGradient gradientUnits="userSpaceOnUse" id="SVGID_61_" node-id="365" spreadMethod="pad" x1="67.0245" x2="58.7046" y1="44.8935" y2="43.7242"><stop offset="0.1554" stop-color="#f7ba31"></stop><stop offset="0.1645" stop-color="#f7bb32"></stop><stop offset="0.3118" stop-color="#f9c13c"></stop><stop offset="0.4969" stop-color="#f9c33f"></stop><stop offset="0.5596" stop-color="#fac644"></stop><stop offset="0.7867" stop-color="#fcce51"></stop><stop offset="1" stop-color="#fdd155"></stop></linearGradient><linearGradient gradientUnits="userSpaceOnUse" id="SVGID_62_" node-id="374" spreadMethod="pad" x1="59.2726" x2="50.4671" y1="46.767" y2="45.9966"><stop offset="0.1554" stop-color="#f7ba31"></stop><stop offset="0.1645" stop-color="#f7bb32"></stop><stop offset="0.3118" stop-color="#f9c13c"></stop><stop offset="0.4969" stop-color="#f9c33f"></stop><stop offset="0.5596" stop-color="#fac644"></stop><stop offset="0.7867" stop-color="#fcce51"></stop><stop offset="1" stop-color="#fdd155"></stop></linearGradient><linearGradient gradientUnits="userSpaceOnUse" id="SVGID_63_" node-id="383" spreadMethod="pad" x1="52.3579" x2="42.521" y1="43.9963" y2="43.9963"><stop offset="0.1554" stop-color="#f7ba31"></stop><stop offset="0.1645" stop-color="#f7bb32"></stop><stop offset="0.3118" stop-color="#f9c13c"></stop><stop offset="0.4969" stop-color="#f9c33f"></stop><stop offset="0.5596" stop-color="#fac644"></stop><stop offset="0.7867" stop-color="#fcce51"></stop><stop offset="1" stop-color="#fdd155"></stop></linearGradient><linearGradient gradientUnits="userSpaceOnUse" id="SVGID_64_" node-id="392" spreadMethod="pad" x1="46.0541" x2="34.0157" y1="46.5178" y2="47.5901"><stop offset="0.1554" stop-color="#f7bc36"></stop><stop offset="0.299" stop-color="#f8c03b"></stop><stop offset="0.6079" stop-color="#f9c33e"></stop><stop offset="0.6195" stop-color="#f9c43f"></stop><stop offset="0.8035" stop-color="#fbcb4a"></stop><stop offset="1" stop-color="#fccd4e"></stop></linearGradient><linearGradient gradientUnits="userSpaceOnUse" id="SVGID_65_" node-id="400" spreadMethod="pad" x1="36.0408" x2="26.7881" y1="41.6254" y2="43.2569"><stop offset="0.1554" stop-color="#f7bc34"></stop><stop offset="0.1623" stop-color="#f7bd36"></stop><stop offset="0.2308" stop-color="#fac647"></stop><stop offset="0.3061" stop-color="#fccb51"></stop><stop offset="0.4006" stop-color="#fccd54"></stop><stop offset="1" stop-color="#fdd257"></stop></linearGradient><linearGradient gradientUnits="userSpaceOnUse" id="SVGID_66_" node-id="408" spreadMethod="pad" x1="50.243" x2="50.243" y1="38.2326" y2="86.3627"><stop offset="0.3441" stop-color="#f66c54"></stop><stop offset="0.5534" stop-color="#f66850"></stop><stop offset="0.7548" stop-color="#f55d46"></stop><stop offset="0.9525" stop-color="#f34934"></stop><stop offset="0.9796" stop-color="#f34631"></stop></linearGradient><linearGradient gradientUnits="userSpaceOnUse" id="SVGID_69_" node-id="420" spreadMethod="pad" x1="50.243" x2="50.243" y1="65.3643" y2="75.2932"><stop offset="0" stop-color="#774a21"></stop><stop offset="0.4031" stop-color="#76471d"></stop><stop offset="0.7907" stop-color="#733f12"></stop><stop offset="0.9398" stop-color="#713b0b"></stop></linearGradient><linearGradient gradientUnits="userSpaceOnUse" id="SVGID_70_" node-id="426" spreadMethod="pad" x1="49.8241" x2="50.6618" y1="79.6886" y2="60.5717"><stop offset="0.4242" stop-color="#ffc37a"></stop><stop offset="0.6523" stop-color="#ffd39e"></stop><stop offset="0.8725" stop-color="#ffe0ba"></stop><stop offset="1" stop-color="#ffe5c4"></stop></linearGradient><clipPath id="SVGID_68_" node-id="418"><path d="M 70.73 38.23 C 69.05 38.23 67.67 39.48 67.39 41.14 C 66.01 49.43 58.86 55.75 50.24 55.75 C 41.62 55.75 34.47 49.43 33.09 41.14 C 32.81 39.47 31.43 38.23 29.75 38.23 L 26.11 38.23 C 24.06 38.23 22.48 40.06 22.77 42.11 L 28.59 83.44 C 28.83 85.12 30.25 86.36 31.93 86.36 L 68.54 86.36 C 70.22 86.36 71.65 85.11 71.88 83.44 L 77.70 42.11 C 77.99 40.06 76.41 38.23 74.36 38.23 L 70.73 38.23 Z" fill="#000000" fill-rule="nonzero" node-id="560" stroke="none" target-height="48.13" target-width="55.51" target-x="22.48" target-y="38.23"></path></clipPath></defs><path d="M 66.79 49.10 C 67.18 46.72 69.16 44.95 71.55 44.95 L 74.17 44.95 L 76.66 32.40 C 77.08 30.27 75.81 28.17 73.83 27.72 L 73.36 27.61 C 71.37 27.16 69.42 28.52 68.99 30.65 L 63.61 57.75 C 65.17 55.13 66.27 52.22 66.79 49.10 Z" fill="url(#SVGID_60_)" fill-rule="nonzero" node-id="566" stroke="none" target-height="30.59" target-width="13.470001" target-x="63.61" target-y="27.16"></path><path d="M 64.30 64.29 L 69.89 21.62 C 70.18 19.42 68.75 17.39 66.70 17.08 L 66.22 17.00 C 64.17 16.69 62.27 18.22 61.98 20.42 L 55.35 71.03 C 58.81 69.47 61.87 67.16 64.30 64.29 Z" fill="url(#SVGID_61_)" fill-rule="nonzero" node-id="568" stroke="none" target-height="54.339996" target-width="14.830002" target-x="55.35" target-y="16.69"></path><path d="M 57.17 70.77 L 60.12 24.21 C 60.26 22.07 58.75 20.22 56.75 20.07 L 56.28 20.04 C 54.28 19.89 52.56 21.51 52.42 23.65 L 49.34 72.37 C 52.09 72.27 54.73 71.72 57.17 70.77 Z" fill="url(#SVGID_62_)" fill-rule="nonzero" node-id="570" stroke="none" target-height="52.480003" target-width="10.919998" target-x="49.34" target-y="19.89"></path><path d="M 51.43 73.63 C 51.74 73.63 52.05 73.60 52.36 73.59 L 50.34 18.13 C 50.25 15.96 48.54 14.27 46.51 14.37 L 46.03 14.39 C 44.00 14.48 42.43 16.32 42.52 18.49 L 44.49 72.62 C 46.70 73.27 49.02 73.63 51.43 73.63 Z" fill="url(#SVGID_63_)" fill-rule="nonzero" node-id="572" stroke="none" target-height="59.359997" target-width="9.93" target-x="42.43" target-y="14.27"></path><path d="M 45.85 71.03 L 41.93 26.47 C 41.73 24.21 39.86 22.55 37.75 22.77 L 37.25 22.82 C 35.14 23.03 33.60 25.04 33.79 27.30 L 37.14 65.32 C 39.61 67.77 42.57 69.73 45.85 71.03 Z" fill="url(#SVGID_64_)" fill-rule="nonzero" node-id="574" stroke="none" target-height="48.48" target-width="12.25" target-x="33.6" target-y="22.55"></path><path d="M 27.79 48.92 L 28.94 48.92 C 31.47 48.92 33.55 50.80 33.97 53.31 C 34.59 57.07 36.02 60.55 38.04 63.59 L 32.96 24.20 C 32.67 21.92 30.70 20.33 28.58 20.64 L 28.08 20.71 C 25.95 21.02 24.47 23.13 24.76 25.41 L 27.79 48.92 Z" fill="url(#SVGID_65_)" fill-rule="nonzero" node-id="576" stroke="none" target-height="43.260002" target-width="13.570002" target-x="24.47" target-y="20.33"></path><path d="M 70.73 38.23 C 69.05 38.23 67.67 39.48 67.39 41.14 C 66.01 49.43 58.86 55.75 50.24 55.75 C 41.62 55.75 34.47 49.43 33.09 41.14 C 32.81 39.47 31.43 38.23 29.75 38.23 L 26.11 38.23 C 24.06 38.23 22.48 40.06 22.77 42.11 L 28.59 83.44 C 28.83 85.12 30.25 86.36 31.93 86.36 L 68.54 86.36 C 70.22 86.36 71.65 85.11 71.88 83.44 L 77.70 42.11 C 77.99 40.06 76.41 38.23 74.36 38.23 L 70.73 38.23 Z" fill="url(#SVGID_66_)" fill-rule="nonzero" node-id="578" stroke="none" target-height="48.13" target-width="55.51" target-x="22.48" target-y="38.23"></path><g node-id="590"><g clip-path="url(#SVGID_68_)" group-id="1" node-id="582"><path d="M 22.74 65.36 L 77.74 65.36 L 77.74 75.29 L 22.74 75.29 Z" fill="url(#SVGID_69_)" fill-rule="nonzero" group-id="1,2" node-id="584" stroke="none" target-height="9.93" target-width="55" target-x="22.74" target-y="65.36"></path></g></g><path d="M 59.74 70.13 C 59.74 75.41 55.49 79.70 50.24 79.70 C 44.99 79.70 40.74 75.42 40.74 70.13 C 40.74 68.62 41.09 67.18 41.71 65.91 C 43.26 62.74 46.49 60.56 50.24 60.56 C 53.98 60.56 57.22 62.74 58.77 65.91 C 59.39 67.18 59.74 68.62 59.74 70.13 Z" fill="url(#SVGID_70_)" fill-rule="nonzero" node-id="588" stroke="none" target-height="19.139996" target-width="19" target-x="40.74" target-y="60.56"></path></svg>