<?xml version="1.0" standalone="no"?><!DOCTYPE svg PUBLIC "-//W3C//DTD SVG 1.1//EN" "http://www.w3.org/Graphics/SVG/1.1/DTD/svg11.dtd"><svg height="1000" node-id="1" sillyvg="true" template-height="1000" template-width="1000" version="1.1" viewBox="0 0 1000 1000" width="1000" xmlns="http://www.w3.org/2000/svg" xmlns:xlink="http://www.w3.org/1999/xlink"><defs node-id="50"></defs><g node-id="163"><g node-id="165"><path d="M 538.08 548.27 C 538.08 587.11 506.59 618.60 467.75 618.60 C 428.91 618.60 397.42 587.11 397.42 548.27 C 397.42 509.43 428.91 477.94 467.75 477.94 C 506.59 477.94 538.08 509.43 538.08 548.27 Z" fill="#95fdb8" fill-rule="nonzero" group-id="1,3" node-id="58" stroke="none" target-height="140.65997" target-width="140.66" target-x="397.42" target-y="477.94"></path><g node-id="175"><path d="M 523.85 548.27 C 523.84 551.41 523.64 554.53 523.23 557.64 C 523.40 556.38 523.57 555.12 523.74 553.86 C 522.91 560.00 521.28 565.99 518.90 571.71 C 519.38 570.58 519.86 569.44 520.34 568.31 C 517.98 573.88 514.93 579.13 511.25 583.93 C 511.99 582.97 512.73 582.01 513.48 581.05 C 509.74 585.89 505.39 590.23 500.55 593.98 C 501.51 593.24 502.47 592.50 503.43 591.75 C 498.62 595.43 493.38 598.48 487.81 600.84 C 488.94 600.36 490.08 599.88 491.21 599.40 C 485.49 601.79 479.50 603.41 473.36 604.24 C 474.62 604.07 475.88 603.90 477.14 603.73 C 470.92 604.54 464.62 604.54 458.39 603.73 C 459.65 603.90 460.91 604.07 462.17 604.24 C 456.03 603.41 450.04 601.78 444.32 599.40 C 445.45 599.88 446.59 600.36 447.72 600.84 C 442.15 598.48 436.90 595.43 432.10 591.75 C 433.06 592.49 434.02 593.23 434.98 593.98 C 430.14 590.24 425.80 585.89 422.05 581.05 C 422.79 582.01 423.53 582.97 424.28 583.93 C 420.60 579.12 417.55 573.88 415.19 568.31 C 415.67 569.44 416.15 570.58 416.63 571.71 C 414.24 565.99 412.62 560.00 411.79 553.86 C 411.96 555.12 412.13 556.38 412.30 557.64 C 411.49 551.42 411.49 545.12 412.30 538.89 C 412.13 540.15 411.96 541.41 411.79 542.67 C 412.62 536.53 414.25 530.54 416.63 524.82 C 416.15 525.95 415.67 527.09 415.19 528.22 C 417.55 522.65 420.60 517.40 424.28 512.60 C 423.54 513.56 422.80 514.52 422.05 515.48 C 425.79 510.64 430.14 506.30 434.98 502.55 C 434.02 503.29 433.06 504.03 432.10 504.78 C 436.91 501.10 442.15 498.05 447.72 495.69 C 446.59 496.17 445.45 496.65 444.32 497.13 C 450.04 494.74 456.03 493.12 462.17 492.29 C 460.91 492.46 459.65 492.63 458.39 492.80 C 464.61 491.99 470.91 491.99 477.14 492.80 C 475.88 492.63 474.62 492.46 473.36 492.29 C 479.50 493.12 485.49 494.75 491.21 497.13 C 490.08 496.65 488.94 496.17 487.81 495.69 C 493.38 498.05 498.63 501.10 503.43 504.78 C 502.47 504.04 501.51 503.30 500.55 502.55 C 505.39 506.29 509.73 510.64 513.48 515.48 C 512.74 514.52 512.00 513.56 511.25 512.60 C 514.93 517.41 517.98 522.65 520.34 528.22 C 519.86 527.09 519.38 525.95 518.90 524.82 C 521.29 530.54 522.91 536.53 523.74 542.67 C 523.57 541.41 523.40 540.15 523.23 538.89 C 523.63 542.00 523.84 545.13 523.85 548.27 C 523.86 551.93 525.43 555.75 528.02 558.34 C 530.49 560.81 534.54 562.67 538.09 562.51 C 541.77 562.35 545.59 561.14 548.16 558.34 C 550.71 555.56 552.34 552.13 552.33 548.27 C 552.31 539.64 551.03 530.79 548.34 522.57 C 545.76 514.68 542.13 506.97 537.30 500.21 C 534.60 496.44 531.70 492.75 528.48 489.40 C 525.20 485.99 521.55 483.06 517.80 480.19 C 511.14 475.11 503.69 471.39 495.83 468.50 C 487.80 465.55 479.11 464.08 470.58 463.74 C 466.74 463.59 462.89 463.75 459.08 464.22 C 454.20 464.82 449.38 465.54 444.64 466.89 C 436.72 469.15 428.91 472.61 422.01 477.14 C 415.09 481.68 408.62 487.14 403.35 493.54 C 400.36 497.18 397.50 500.96 395.08 505.00 C 392.65 509.05 390.77 513.34 388.98 517.70 C 385.72 525.65 384.09 534.11 383.42 542.65 C 382.74 551.34 383.65 560.31 385.71 568.77 C 387.67 576.80 390.97 584.71 395.25 591.78 C 399.52 598.84 404.88 605.48 411.07 610.96 C 417.25 616.44 424.14 621.27 431.69 624.68 C 436.00 626.63 440.40 628.43 444.97 629.70 C 449.71 631.03 454.55 631.74 459.43 632.32 C 468.11 633.35 476.94 632.64 485.49 630.92 C 493.69 629.27 501.73 626.13 509.03 622.08 C 513.18 619.78 516.95 616.99 520.69 614.09 C 523.54 611.88 526.23 609.48 528.72 606.87 C 534.39 600.93 539.41 594.08 543.08 586.72 C 546.84 579.16 549.75 571.12 551.03 562.76 C 551.77 557.94 552.34 553.12 552.35 548.24 C 552.36 544.60 550.76 540.75 548.18 538.17 C 545.71 535.70 541.66 533.84 538.11 534.00 C 534.43 534.16 530.61 535.37 528.04 538.17 C 525.46 540.99 523.86 544.40 523.85 548.27 Z" fill="#08c247" fill-rule="nonzero" group-id="1,3,13" node-id="62" stroke="none" target-height="169.75998" target-width="169.62" target-x="382.74" target-y="463.59"></path></g></g><g node-id="166"><path d="M 325.87 588.51 C 325.87 627.13 294.56 658.44 255.94 658.44 C 217.32 658.44 186.01 627.13 186.01 588.51 C 186.01 549.89 217.32 518.58 255.94 518.58 C 294.56 518.58 325.87 549.89 325.87 588.51 Z" fill="#95fdb8" fill-rule="nonzero" group-id="1,4" node-id="68" stroke="none" target-height="139.85999" target-width="139.86" target-x="186.01" target-y="518.58"></path><g node-id="176"><path d="M 311.63 588.51 C 311.62 591.65 311.42 594.77 311.01 597.88 C 311.18 596.62 311.35 595.36 311.52 594.10 C 310.68 600.24 309.05 606.23 306.65 611.94 C 307.13 610.81 307.61 609.67 308.09 608.54 C 305.72 614.11 302.65 619.35 298.95 624.14 C 299.69 623.18 300.43 622.22 301.18 621.26 C 297.55 625.92 293.36 630.10 288.71 633.73 C 289.67 632.99 290.63 632.25 291.59 631.50 C 286.80 635.20 281.56 638.27 275.99 640.64 C 277.12 640.16 278.26 639.68 279.39 639.20 C 273.68 641.60 267.69 643.23 261.55 644.07 C 262.81 643.90 264.07 643.73 265.33 643.56 C 259.11 644.38 252.80 644.38 246.58 643.56 C 247.84 643.73 249.10 643.90 250.36 644.07 C 244.22 643.23 238.23 641.60 232.52 639.20 C 233.65 639.68 234.79 640.16 235.92 640.64 C 230.35 638.27 225.11 635.20 220.32 631.50 C 221.28 632.24 222.24 632.98 223.20 633.73 C 218.54 630.10 214.36 625.91 210.73 621.26 C 211.47 622.22 212.21 623.18 212.96 624.14 C 209.26 619.35 206.19 614.11 203.82 608.54 C 204.30 609.67 204.78 610.81 205.26 611.94 C 202.86 606.23 201.23 600.24 200.39 594.10 C 200.56 595.36 200.73 596.62 200.90 597.88 C 200.08 591.66 200.08 585.35 200.90 579.13 C 200.73 580.39 200.56 581.65 200.39 582.91 C 201.23 576.77 202.86 570.78 205.26 565.07 C 204.78 566.20 204.30 567.34 203.82 568.47 C 206.19 562.90 209.26 557.66 212.96 552.87 C 212.22 553.83 211.48 554.79 210.73 555.75 C 214.36 551.09 218.55 546.91 223.20 543.28 C 222.24 544.02 221.28 544.76 220.32 545.51 C 225.11 541.81 230.35 538.74 235.92 536.37 C 234.79 536.85 233.65 537.33 232.52 537.81 C 238.23 535.41 244.22 533.78 250.36 532.94 C 249.10 533.11 247.84 533.28 246.58 533.45 C 252.80 532.63 259.11 532.63 265.33 533.45 C 264.07 533.28 262.81 533.11 261.55 532.94 C 267.69 533.78 273.68 535.41 279.39 537.81 C 278.26 537.33 277.12 536.85 275.99 536.37 C 281.56 538.74 286.80 541.81 291.59 545.51 C 290.63 544.77 289.67 544.03 288.71 543.28 C 293.37 546.91 297.55 551.10 301.18 555.75 C 300.44 554.79 299.70 553.83 298.95 552.87 C 302.65 557.66 305.72 562.90 308.09 568.47 C 307.61 567.34 307.13 566.20 306.65 565.07 C 309.05 570.78 310.68 576.77 311.52 582.91 C 311.35 581.65 311.18 580.39 311.01 579.13 C 311.42 582.25 311.62 585.38 311.63 588.51 C 311.64 592.17 313.21 595.99 315.80 598.58 C 318.27 601.05 322.32 602.91 325.87 602.75 C 329.55 602.59 333.37 601.38 335.94 598.58 C 338.49 595.80 340.12 592.37 340.11 588.51 C 340.10 583.52 339.51 578.58 338.73 573.65 C 338.15 570.03 337.29 566.45 336.15 562.97 C 333.59 555.13 329.99 547.47 325.19 540.74 C 322.49 536.96 319.60 533.27 316.37 529.93 C 313.09 526.52 309.44 523.60 305.68 520.73 C 299.07 515.68 291.64 512.00 283.84 509.13 C 275.86 506.20 267.22 504.74 258.75 504.41 C 254.91 504.26 251.06 504.42 247.25 504.89 C 242.43 505.49 237.66 506.20 232.97 507.53 C 225.04 509.79 217.23 513.25 210.34 517.79 C 203.47 522.31 197.04 527.73 191.81 534.10 C 188.86 537.70 186.03 541.43 183.63 545.43 C 181.20 549.48 179.32 553.77 177.52 558.13 C 174.27 566.02 172.66 574.44 171.99 582.92 C 171.31 591.56 172.21 600.47 174.25 608.88 C 176.20 616.91 179.51 624.83 183.79 631.90 C 188.04 638.91 193.37 645.51 199.51 650.95 C 205.66 656.39 212.50 661.19 220.00 664.58 C 224.32 666.53 228.71 668.33 233.28 669.60 C 237.96 670.91 242.75 671.61 247.57 672.19 C 256.25 673.22 265.08 672.52 273.63 670.79 C 281.77 669.14 289.76 666.01 297.01 661.98 C 304.18 658.00 310.91 652.79 316.57 646.86 C 322.20 640.96 327.19 634.15 330.84 626.84 C 334.58 619.34 337.47 611.34 338.75 603.04 C 339.49 598.22 340.07 593.40 340.08 588.52 C 340.09 584.88 338.49 581.03 335.91 578.45 C 333.44 575.98 329.39 574.12 325.84 574.28 C 322.16 574.44 318.34 575.65 315.77 578.45 C 313.24 581.24 311.64 584.65 311.63 588.51 Z" fill="#08c247" fill-rule="nonzero" group-id="1,4,14" node-id="72" stroke="none" target-height="168.95996" target-width="168.81" target-x="171.31" target-y="504.26"></path></g></g><g node-id="167"><g node-id="177"><path d="M 456.58 854.76 C 451.64 853.13 447.19 849.91 444.06 845.27 C 406.13 789.17 377.14 729.23 357.91 667.13 C 342.50 617.36 333.30 566.12 330.55 514.82 C 325.84 426.91 341.70 369.18 342.38 366.77 C 346.02 353.80 359.49 346.24 372.46 349.88 C 385.43 353.49 392.98 366.95 389.37 379.91 L 389.37 379.91 C 384.30 398.25 375.70 449.94 379.39 514.31 C 382.09 561.36 390.68 608.38 404.94 654.04 C 422.75 711.08 449.51 766.22 484.48 817.95 C 492.03 829.11 489.10 844.27 477.94 851.82 C 471.41 856.22 463.52 857.06 456.58 854.76 Z" fill="#95fdb8" fill-rule="nonzero" group-id="1,5,15" node-id="80" stroke="none" target-height="510.82" target-width="166.19" target-x="325.84" target-y="346.24"></path><g node-id="185"><path d="M 460.37 841.03 C 459.94 840.88 459.42 840.63 458.97 840.52 C 462.07 841.24 461.39 841.61 460.34 841.03 C 459.46 840.54 458.62 840.01 457.76 839.50 C 455.68 838.27 458.94 840.35 458.82 840.36 C 458.67 840.37 457.86 839.52 457.67 839.35 C 457.30 839.00 456.93 838.64 456.58 838.26 C 456.31 837.98 456.05 837.69 455.80 837.39 C 455.10 836.57 455.44 837.01 456.81 838.73 C 456.60 837.82 455.32 836.55 454.78 835.75 C 454.09 834.71 453.39 833.68 452.71 832.64 C 451.25 830.44 449.80 828.22 448.36 826.00 C 442.72 817.29 437.28 808.46 432.03 799.51 C 421.65 781.81 412.06 763.64 403.31 745.08 C 401.17 740.55 399.09 735.99 397.06 731.41 C 396.08 729.19 395.10 726.97 394.15 724.74 C 393.67 723.63 393.20 722.51 392.72 721.40 C 391.98 719.66 393.82 724.04 393.10 722.29 C 392.81 721.59 392.52 720.89 392.23 720.20 C 388.30 710.73 384.58 701.17 381.10 691.52 C 374.03 671.96 367.92 652.06 362.79 631.90 C 356.77 608.23 352.13 584.23 348.88 560.02 C 349.05 561.28 349.22 562.54 349.39 563.80 C 343.72 521.19 342.31 477.96 345.85 435.10 C 346.58 426.28 347.52 417.49 348.70 408.72 C 348.53 409.98 348.36 411.24 348.19 412.50 C 350.08 398.49 352.19 384.16 356.12 370.54 C 356.25 370.08 356.42 369.63 356.55 369.17 C 357.23 366.66 354.96 372.23 356.18 369.96 C 356.68 369.04 357.13 368.13 357.70 367.25 C 358.03 366.74 359.03 365.43 357.57 367.30 C 356.00 369.30 357.35 367.60 357.74 367.16 C 358.49 366.32 359.32 365.58 360.15 364.81 C 361.06 363.98 361.65 364.40 358.85 365.80 C 359.34 365.56 359.78 365.16 360.24 364.88 C 361.09 364.35 362.05 363.99 362.89 363.46 C 359.99 365.29 360.21 364.49 361.35 364.13 C 361.99 363.93 362.62 363.70 363.27 363.52 C 364.36 363.22 365.46 363.02 366.58 362.86 C 365.32 363.03 364.06 363.20 362.80 363.37 C 364.87 363.14 366.91 363.14 368.98 363.38 C 367.72 363.21 366.46 363.04 365.20 362.87 C 366.49 363.06 367.77 363.31 369.02 363.68 C 369.57 363.84 370.15 364.15 370.71 364.24 C 367.83 363.78 368.28 363.12 369.87 363.94 C 370.88 364.46 371.79 365.25 372.81 365.72 C 370.08 364.46 370.77 364.04 372.05 365.18 C 372.47 365.55 372.87 365.94 373.26 366.35 C 373.65 366.75 374.01 367.18 374.39 367.59 C 375.92 369.25 372.76 365.15 373.59 366.57 C 374.21 367.63 374.86 368.66 375.46 369.73 C 376.56 371.72 374.47 366.88 374.96 368.48 C 375.12 369.01 375.34 369.53 375.50 370.07 C 375.89 371.37 376.15 372.68 376.35 374.02 C 376.18 372.76 376.01 371.50 375.84 370.24 C 376.08 372.31 376.07 374.35 375.84 376.41 C 376.01 375.15 376.18 373.89 376.35 372.63 C 375.81 376.41 374.57 380.12 373.76 383.85 C 372.82 388.12 372.01 392.41 371.28 396.72 C 369.12 409.39 367.53 422.18 366.38 434.99 C 363.44 467.90 363.60 501.08 366.63 533.98 C 369.96 570.13 376.45 606.01 386.23 640.98 C 395.52 674.17 407.79 706.51 422.43 737.71 C 429.61 753.01 437.40 768.01 445.78 782.69 C 450.01 790.10 454.39 797.43 458.91 804.67 C 463.40 811.87 468.34 818.80 472.78 826.02 C 473.15 826.62 473.50 827.24 473.81 827.88 C 475.23 830.71 472.94 825.20 473.60 827.36 C 474.07 828.89 474.47 830.40 474.72 831.99 C 474.55 830.73 474.38 829.47 474.21 828.21 C 474.49 830.45 474.49 832.66 474.22 834.91 C 474.39 833.65 474.56 832.39 474.73 831.13 C 474.56 832.23 474.35 833.33 474.05 834.40 C 473.90 834.94 473.71 835.46 473.54 836.00 C 473.16 837.17 472.15 838.10 474.09 834.77 C 473.58 835.64 473.18 836.57 472.63 837.43 C 472.40 837.79 472.06 838.61 471.68 838.84 C 472.14 838.57 474.02 836.01 472.39 837.82 C 471.69 838.60 470.92 839.30 470.15 840.01 C 468.28 841.73 472.36 838.57 471.06 839.31 C 470.46 839.65 469.90 840.09 469.29 840.44 C 468.67 840.80 468.02 841.08 467.40 841.42 C 465.98 842.19 470.77 840.34 468.07 841.07 C 466.73 841.43 465.43 841.79 464.05 842.01 C 465.31 841.84 466.57 841.67 467.83 841.50 C 465.65 841.78 463.52 841.81 461.34 841.58 C 462.60 841.75 463.86 841.92 465.12 842.09 C 463.49 841.87 461.93 841.52 460.37 841.03 C 453.26 838.81 444.52 843.65 442.86 850.97 C 441.10 858.71 445.19 866.10 452.80 868.48 C 466.43 872.74 482.15 868.85 492.03 858.46 C 501.11 848.91 504.46 835.91 501.93 823.09 C 500.80 817.37 497.85 812.40 494.67 807.63 C 491.37 802.69 488.14 797.71 484.97 792.68 C 478.69 782.71 472.67 772.56 466.94 762.26 C 461.26 752.06 455.86 741.70 450.76 731.20 C 448.16 725.85 445.63 720.46 443.18 715.03 C 442.05 712.53 440.94 710.03 439.85 707.52 C 439.30 706.27 438.76 705.01 438.23 703.75 C 438.10 703.46 436.92 700.66 437.88 702.93 C 438.82 705.16 437.55 702.13 437.37 701.69 C 428.36 680.03 420.61 657.85 414.21 635.28 C 406.63 608.52 400.96 581.23 397.24 553.67 C 397.41 554.93 397.58 556.19 397.75 557.45 C 392.55 518.39 391.30 478.82 394.46 439.53 C 395.15 430.96 396.06 422.41 397.20 413.89 C 397.03 415.15 396.86 416.41 396.69 417.67 C 397.74 409.93 398.97 402.21 400.54 394.56 C 402.04 387.26 404.81 379.77 404.49 372.27 C 403.91 358.80 396.44 345.64 384.25 339.36 C 371.88 332.99 356.47 333.08 344.76 341.03 C 336.67 346.52 330.95 354.43 328.41 363.90 C 327.70 366.55 327.08 369.22 326.49 371.89 C 323.44 385.61 321.34 399.53 319.61 413.47 C 313.68 461.07 314.21 509.51 320.06 557.08 C 326.71 611.22 339.81 664.33 359.70 715.14 C 369.45 740.06 380.56 764.45 393.09 788.09 C 399.14 799.51 405.52 810.76 412.21 821.82 C 415.58 827.39 419.02 832.92 422.54 838.39 C 426.49 844.54 430.34 850.91 434.95 856.60 C 439.59 862.32 445.94 866.07 452.82 868.46 C 459.86 870.91 468.70 865.67 470.33 858.52 C 472.12 850.61 467.91 843.66 460.37 841.03 Z" fill="#08c247" fill-rule="nonzero" group-id="1,5,15,23" node-id="84" stroke="none" target-height="539.75" target-width="190.78" target-x="313.68" target-y="332.99"></path></g></g></g><g node-id="168"><path d="M 533.21 271.00 C 533.21 383.49 442.02 474.68 329.53 474.68 C 217.04 474.68 125.85 383.49 125.85 271.00 C 125.85 158.51 217.04 67.32 329.53 67.32 C 442.02 67.32 533.21 158.51 533.21 271.00 Z" fill="#fd7c4b" fill-rule="nonzero" group-id="1,6" node-id="91" stroke="none" target-height="407.36" target-width="407.36002" target-x="125.85" target-y="67.32"></path><g node-id="178"><path d="M 518.97 271.00 C 518.96 280.09 518.36 289.16 517.17 298.18 C 517.34 296.92 517.51 295.66 517.68 294.40 C 515.28 312.23 510.54 329.67 503.58 346.26 C 504.06 345.13 504.54 343.99 505.02 342.86 C 498.17 359.05 489.26 374.30 478.54 388.22 C 479.28 387.26 480.02 386.30 480.77 385.34 C 470.08 399.14 457.67 411.55 443.87 422.24 C 444.83 421.50 445.79 420.76 446.75 420.01 C 432.83 430.73 417.58 439.65 401.39 446.49 C 402.52 446.01 403.66 445.53 404.79 445.05 C 388.20 452.01 370.76 456.75 352.93 459.15 C 354.19 458.98 355.45 458.81 356.71 458.64 C 338.68 461.02 320.39 461.02 302.36 458.64 C 303.62 458.81 304.88 458.98 306.14 459.15 C 288.31 456.75 270.87 452.01 254.28 445.05 C 255.41 445.53 256.55 446.01 257.68 446.49 C 241.49 439.64 226.24 430.73 212.32 420.01 C 213.28 420.75 214.24 421.49 215.20 422.24 C 201.40 411.55 188.99 399.14 178.30 385.34 C 179.04 386.30 179.78 387.26 180.53 388.22 C 169.81 374.30 160.89 359.05 154.05 342.86 C 154.53 343.99 155.01 345.13 155.49 346.26 C 148.53 329.67 143.79 312.23 141.39 294.40 C 141.56 295.66 141.73 296.92 141.90 298.18 C 139.52 280.15 139.52 261.86 141.90 243.83 C 141.73 245.09 141.56 246.35 141.39 247.61 C 143.79 229.78 148.53 212.34 155.49 195.75 C 155.01 196.88 154.53 198.02 154.05 199.15 C 160.90 182.96 169.81 167.71 180.53 153.79 C 179.79 154.75 179.05 155.71 178.30 156.67 C 188.99 142.87 201.40 130.46 215.20 119.77 C 214.24 120.51 213.28 121.25 212.32 122.00 C 226.24 111.28 241.49 102.36 257.68 95.52 C 256.55 96.00 255.41 96.48 254.28 96.96 C 270.87 90.00 288.31 85.26 306.14 82.86 C 304.88 83.03 303.62 83.20 302.36 83.37 C 320.39 80.99 338.68 80.99 356.71 83.37 C 355.45 83.20 354.19 83.03 352.93 82.86 C 370.76 85.26 388.20 90.00 404.79 96.96 C 403.66 96.48 402.52 96.00 401.39 95.52 C 417.58 102.37 432.83 111.28 446.75 122.00 C 445.79 121.26 444.83 120.52 443.87 119.77 C 457.67 130.46 470.08 142.87 480.77 156.67 C 480.03 155.71 479.29 154.75 478.54 153.79 C 489.26 167.71 498.18 182.96 505.02 199.15 C 504.54 198.02 504.06 196.88 503.58 195.75 C 510.54 212.34 515.28 229.78 517.68 247.61 C 517.51 246.35 517.34 245.09 517.17 243.83 C 518.36 252.84 518.96 261.91 518.97 271.00 C 518.98 278.45 525.51 285.58 533.21 285.24 C 540.91 284.89 547.46 278.98 547.45 271.00 C 547.42 248.46 543.98 225.69 537.02 204.24 C 530.29 183.51 520.54 163.63 507.90 145.87 C 494.61 127.19 478.87 111.02 460.69 97.09 C 443.35 83.81 424.00 73.54 403.51 66.01 C 382.44 58.27 359.98 54.11 337.56 53.24 C 314.93 52.36 291.90 55.11 270.11 61.29 C 249.13 67.24 228.82 76.42 210.59 88.40 C 192.48 100.31 175.96 114.79 162.17 131.53 C 154.99 140.25 148.33 149.41 142.51 159.09 C 136.59 168.95 131.66 179.30 127.30 189.94 C 118.79 210.67 113.97 232.71 112.24 255.03 C 110.48 277.73 112.50 300.87 117.87 322.98 C 123.03 344.23 131.60 364.90 142.93 383.60 C 154.14 402.10 168.19 419.15 184.38 433.51 C 200.60 447.89 218.83 460.09 238.60 469.02 C 249.07 473.75 259.82 477.85 270.89 480.94 C 282.30 484.12 293.94 486.17 305.69 487.54 C 328.42 490.19 351.54 488.89 373.95 484.36 C 395.48 480.00 416.44 472.07 435.62 461.39 C 454.53 450.87 472.03 437.32 486.97 421.66 C 501.88 406.03 514.68 388.11 524.30 368.77 C 534.16 348.95 541.23 327.74 544.58 305.85 C 546.35 294.30 547.42 282.70 547.44 271.01 C 547.45 263.56 540.88 256.43 533.20 256.77 C 525.48 257.11 518.98 263.02 518.97 271.00 Z" fill="#fdeb83" fill-rule="nonzero" group-id="1,6,16" node-id="95" stroke="none" target-height="437.83002" target-width="436.98" target-x="110.48" target-y="52.36"></path></g></g><g node-id="169"><path d="M 437.26 290.52 C 437.26 340.59 396.67 381.18 346.60 381.18 C 296.53 381.18 255.94 340.59 255.94 290.52 C 255.94 240.45 296.53 199.86 346.60 199.86 C 396.67 199.86 437.26 240.45 437.26 290.52 Z" fill="#fdf566" fill-rule="nonzero" group-id="1,7" node-id="101" stroke="none" target-height="181.31999" target-width="181.32" target-x="255.94" target-y="199.86"></path><g node-id="179"><path d="M 423.02 290.52 C 423.01 294.59 422.74 298.65 422.21 302.68 C 422.38 301.42 422.55 300.16 422.72 298.90 C 421.64 306.83 419.53 314.58 416.44 321.95 C 416.92 320.82 417.40 319.68 417.88 318.55 C 414.83 325.75 410.87 332.52 406.10 338.72 C 406.84 337.76 407.58 336.80 408.33 335.84 C 403.57 341.98 398.06 347.49 391.92 352.25 C 392.88 351.51 393.84 350.77 394.80 350.02 C 388.61 354.79 381.83 358.75 374.63 361.80 C 375.76 361.32 376.90 360.84 378.03 360.36 C 370.65 363.46 362.90 365.57 354.98 366.64 C 356.24 366.47 357.50 366.30 358.76 366.13 C 350.69 367.20 342.51 367.20 334.44 366.13 C 335.70 366.30 336.96 366.47 338.22 366.64 C 330.29 365.56 322.54 363.45 315.17 360.36 C 316.30 360.84 317.44 361.32 318.57 361.80 C 311.37 358.75 304.60 354.79 298.40 350.02 C 299.36 350.76 300.32 351.50 301.28 352.25 C 295.14 347.49 289.63 341.98 284.87 335.84 C 285.61 336.80 286.35 337.76 287.10 338.72 C 282.33 332.53 278.37 325.75 275.32 318.55 C 275.80 319.68 276.28 320.82 276.76 321.95 C 273.66 314.57 271.55 306.82 270.48 298.90 C 270.65 300.16 270.82 301.42 270.99 302.68 C 269.92 294.61 269.92 286.43 270.99 278.36 C 270.82 279.62 270.65 280.88 270.48 282.14 C 271.56 274.21 273.67 266.46 276.76 259.09 C 276.28 260.22 275.80 261.36 275.32 262.49 C 278.37 255.29 282.33 248.52 287.10 242.32 C 286.36 243.28 285.62 244.24 284.87 245.20 C 289.63 239.06 295.14 233.55 301.28 228.79 C 300.32 229.53 299.36 230.27 298.40 231.02 C 304.59 226.25 311.37 222.29 318.57 219.24 C 317.44 219.72 316.30 220.20 315.17 220.68 C 322.55 217.58 330.30 215.47 338.22 214.40 C 336.96 214.57 335.70 214.74 334.44 214.91 C 342.51 213.84 350.69 213.84 358.76 214.91 C 357.50 214.74 356.24 214.57 354.98 214.40 C 362.91 215.48 370.66 217.59 378.03 220.68 C 376.90 220.20 375.76 219.72 374.63 219.24 C 381.83 222.29 388.60 226.25 394.80 231.02 C 393.84 230.28 392.88 229.54 391.92 228.79 C 398.06 233.55 403.57 239.06 408.33 245.20 C 407.59 244.24 406.85 243.28 406.10 242.32 C 410.87 248.51 414.83 255.29 417.88 262.49 C 417.40 261.36 416.92 260.22 416.44 259.09 C 419.54 266.47 421.65 274.22 422.72 282.14 C 422.55 280.88 422.38 279.62 422.21 278.36 C 422.75 282.39 423.02 286.45 423.02 290.52 C 423.03 294.17 424.60 298.00 427.19 300.59 C 429.66 303.06 433.71 304.92 437.26 304.76 C 440.94 304.60 444.76 303.39 447.33 300.59 C 449.88 297.81 451.51 294.38 451.50 290.52 C 451.48 279.77 449.87 268.79 446.53 258.56 C 443.30 248.67 438.72 239.06 432.65 230.59 C 429.34 225.97 425.78 221.49 421.82 217.40 C 417.84 213.29 413.46 209.71 408.92 206.24 C 400.64 199.92 391.35 195.21 381.58 191.64 C 371.56 187.97 360.78 186.10 350.13 185.69 C 345.24 185.50 340.33 185.71 335.48 186.30 C 329.58 187.02 323.75 187.94 318.03 189.57 C 308.08 192.39 298.32 196.75 289.67 202.44 C 281.06 208.11 273.06 214.93 266.51 222.90 C 262.89 227.30 259.46 231.89 256.53 236.78 C 253.53 241.78 251.16 247.06 248.95 252.45 C 244.91 262.34 242.81 272.89 242.00 283.52 C 241.18 294.29 242.26 305.36 244.82 315.85 C 247.28 325.93 251.41 335.83 256.79 344.69 C 262.10 353.43 268.74 361.60 276.39 368.40 C 284.09 375.24 292.70 381.19 302.10 385.45 C 307.38 387.84 312.78 390.00 318.36 391.57 C 324.09 393.17 329.93 394.09 335.83 394.79 C 346.70 396.08 357.76 395.28 368.47 393.12 C 378.74 391.04 388.80 387.14 397.94 382.03 C 406.87 377.04 415.22 370.58 422.28 363.18 C 429.36 355.77 435.56 347.24 440.13 338.05 C 444.82 328.63 448.36 318.59 449.96 308.17 C 450.86 302.31 451.51 296.45 451.52 290.53 C 451.53 286.88 449.93 283.04 447.35 280.46 C 444.88 277.99 440.83 276.13 437.28 276.29 C 433.60 276.45 429.78 277.66 427.21 280.46 C 424.63 283.24 423.03 286.66 423.02 290.52 Z" fill="#fda76e" fill-rule="nonzero" group-id="1,7,17" node-id="105" stroke="none" target-height="210.57999" target-width="210.35" target-x="241.18" target-y="185.5"></path></g></g></g><g node-id="164"><g node-id="170"><path d="M 773.08 728.41 C 773.08 757.24 749.71 780.61 720.88 780.61 C 692.05 780.61 668.68 757.24 668.68 728.41 C 668.68 699.58 692.05 676.21 720.88 676.21 C 749.71 676.21 773.08 699.58 773.08 728.41 Z" fill="#bffdce" fill-rule="nonzero" group-id="2,8" node-id="114" stroke="none" target-height="104.39996" target-width="104.400024" target-x="668.68" target-y="676.21"></path><g node-id="180"><path d="M 755.09 744.93 C 753.60 747.82 751.87 750.57 749.89 753.15 C 750.63 752.19 751.37 751.23 752.12 750.27 C 749.43 753.73 746.33 756.84 742.88 759.54 C 743.84 758.80 744.80 758.06 745.76 757.31 C 742.18 760.07 738.28 762.36 734.12 764.14 C 735.25 763.66 736.39 763.18 737.52 762.70 C 733.17 764.53 728.61 765.78 723.93 766.42 C 725.19 766.25 726.45 766.08 727.71 765.91 C 723.09 766.51 718.43 766.50 713.81 765.89 C 715.07 766.06 716.33 766.23 717.59 766.40 C 713.07 765.77 708.67 764.56 704.46 762.80 C 705.59 763.28 706.73 763.76 707.86 764.24 C 703.68 762.46 699.74 760.18 696.14 757.41 C 697.10 758.15 698.06 758.89 699.02 759.64 C 695.56 756.95 692.45 753.85 689.75 750.40 C 690.49 751.36 691.23 752.32 691.98 753.28 C 689.22 749.70 686.93 745.80 685.15 741.64 C 685.63 742.77 686.11 743.91 686.59 745.04 C 684.76 740.69 683.51 736.13 682.87 731.45 C 683.04 732.71 683.21 733.97 683.38 735.23 C 682.78 730.61 682.79 725.95 683.40 721.33 C 683.23 722.59 683.06 723.85 682.89 725.11 C 683.52 720.59 684.73 716.19 686.49 711.98 C 686.01 713.11 685.53 714.25 685.05 715.38 C 686.83 711.20 689.11 707.26 691.88 703.66 C 691.14 704.62 690.40 705.58 689.65 706.54 C 692.34 703.08 695.44 699.97 698.89 697.27 C 697.93 698.01 696.97 698.75 696.01 699.50 C 699.59 696.74 703.49 694.45 707.65 692.67 C 706.52 693.15 705.38 693.63 704.25 694.11 C 708.60 692.28 713.16 691.03 717.84 690.39 C 716.58 690.56 715.32 690.73 714.06 690.90 C 718.68 690.30 723.34 690.31 727.96 690.92 C 726.70 690.75 725.44 690.58 724.18 690.41 C 728.70 691.04 733.10 692.25 737.31 694.01 C 736.18 693.53 735.04 693.05 733.91 692.57 C 738.09 694.35 742.03 696.63 745.63 699.40 C 744.67 698.66 743.71 697.92 742.75 697.17 C 746.21 699.86 749.32 702.96 752.02 706.41 C 751.28 705.45 750.54 704.49 749.79 703.53 C 752.55 707.11 754.84 711.01 756.62 715.17 C 756.14 714.04 755.66 712.90 755.18 711.77 C 757.01 716.12 758.26 720.68 758.90 725.36 C 758.73 724.10 758.56 722.84 758.39 721.58 C 758.99 726.20 758.98 730.86 758.37 735.48 C 758.54 734.22 758.71 732.96 758.88 731.70 C 758.25 736.22 757.04 740.62 755.28 744.83 C 755.76 743.70 756.24 742.56 756.72 741.43 C 756.21 742.62 755.67 743.78 755.09 744.93 C 753.36 748.35 752.61 752.12 753.65 755.90 C 754.56 759.20 757.11 762.78 760.19 764.41 C 763.49 766.16 767.50 767.03 771.16 765.85 C 774.57 764.75 778.00 762.61 779.67 759.31 C 782.70 753.32 785.15 746.92 786.19 740.27 C 786.80 736.38 787.32 732.45 787.32 728.51 C 787.32 724.69 786.82 720.93 786.27 717.15 C 785.33 710.70 783.07 704.58 780.26 698.71 C 777.47 692.86 773.52 687.46 769.12 682.73 C 764.68 677.97 759.32 673.81 753.64 670.62 C 747.80 667.34 741.31 664.75 734.72 663.46 C 728.26 662.19 721.59 661.56 715.03 662.31 C 711.26 662.74 707.49 663.25 703.81 664.21 C 700.06 665.20 696.51 666.67 692.96 668.22 C 681.05 673.41 670.91 682.83 664.14 693.85 C 660.62 699.57 657.90 706.05 656.34 712.59 C 654.82 718.96 654.08 725.74 654.57 732.30 C 655.06 738.80 656.20 745.33 658.60 751.41 C 659.98 754.90 661.45 758.37 663.32 761.63 C 665.19 764.90 667.47 767.87 669.80 770.82 C 678.08 781.26 690.28 788.87 703.06 792.44 C 709.39 794.21 716.19 795.08 722.76 794.83 C 729.24 794.59 735.88 793.54 742.01 791.37 C 748.02 789.25 753.91 786.51 759.06 782.71 C 762.19 780.41 765.26 778.01 768.00 775.25 C 770.69 772.54 773.04 769.50 775.29 766.43 C 776.94 764.18 778.39 761.79 779.66 759.31 C 781.41 755.91 782.13 752.10 781.10 748.34 C 780.19 745.04 777.64 741.46 774.56 739.83 C 771.26 738.08 767.25 737.21 763.59 738.39 C 760.18 739.50 756.78 741.64 755.09 744.93 Z" fill="#25e362" fill-rule="nonzero" group-id="2,8,18" node-id="118" stroke="none" target-height="133.52002" target-width="133.23999" target-x="654.08" target-y="661.56"></path></g></g><g node-id="171"><path d="M 619.16 683.62 C 619.16 712.28 595.93 735.51 567.27 735.51 C 538.61 735.51 515.38 712.28 515.38 683.62 C 515.38 654.96 538.61 631.73 567.27 631.73 C 595.93 631.73 619.16 654.96 619.16 683.62 Z" fill="#bffdce" fill-rule="nonzero" group-id="2,9" node-id="124" stroke="none" target-height="103.78003" target-width="103.77997" target-x="515.38" target-y="631.73"></path><g node-id="181"><path d="M 601.21 700.01 C 599.73 702.90 598.00 705.64 596.02 708.21 C 596.76 707.25 597.50 706.29 598.25 705.33 C 595.56 708.79 592.47 711.88 589.01 714.58 C 589.97 713.84 590.93 713.10 591.89 712.35 C 588.31 715.10 584.41 717.38 580.25 719.15 C 581.38 718.67 582.52 718.19 583.65 717.71 C 579.40 719.48 574.95 720.70 570.39 721.33 C 571.65 721.16 572.91 720.99 574.17 720.82 C 569.56 721.43 564.90 721.43 560.29 720.82 C 561.55 720.99 562.81 721.16 564.07 721.33 C 559.56 720.70 555.16 719.50 550.96 717.75 C 552.09 718.23 553.23 718.71 554.36 719.19 C 550.18 717.42 546.26 715.14 542.66 712.37 C 543.62 713.11 544.58 713.85 545.54 714.60 C 542.08 711.91 538.99 708.82 536.29 705.36 C 537.03 706.32 537.77 707.28 538.52 708.24 C 535.77 704.66 533.49 700.76 531.72 696.60 C 532.20 697.73 532.68 698.87 533.16 700.00 C 531.39 695.75 530.17 691.30 529.54 686.74 C 529.71 688.00 529.88 689.26 530.05 690.52 C 529.44 685.91 529.44 681.25 530.05 676.64 C 529.88 677.90 529.71 679.16 529.54 680.42 C 530.17 675.91 531.37 671.51 533.12 667.31 C 532.64 668.44 532.16 669.58 531.68 670.71 C 533.45 666.53 535.73 662.61 538.50 659.01 C 537.76 659.97 537.02 660.93 536.27 661.89 C 538.96 658.43 542.05 655.34 545.51 652.64 C 544.55 653.38 543.59 654.12 542.63 654.87 C 546.21 652.12 550.11 649.84 554.27 648.07 C 553.14 648.55 552.00 649.03 550.87 649.51 C 555.12 647.74 559.57 646.52 564.13 645.89 C 562.87 646.06 561.61 646.23 560.35 646.40 C 564.96 645.79 569.62 645.79 574.23 646.40 C 572.97 646.23 571.71 646.06 570.45 645.89 C 574.96 646.52 579.36 647.72 583.56 649.47 C 582.43 648.99 581.29 648.51 580.16 648.03 C 584.34 649.80 588.26 652.08 591.86 654.85 C 590.90 654.11 589.94 653.37 588.98 652.62 C 592.44 655.31 595.53 658.40 598.23 661.86 C 597.49 660.90 596.75 659.94 596.00 658.98 C 598.75 662.56 601.03 666.46 602.80 670.62 C 602.32 669.49 601.84 668.35 601.36 667.22 C 603.13 671.47 604.35 675.92 604.98 680.48 C 604.81 679.22 604.64 677.96 604.47 676.70 C 605.08 681.31 605.08 685.97 604.47 690.58 C 604.64 689.32 604.81 688.06 604.98 686.80 C 604.35 691.31 603.15 695.71 601.40 699.91 C 601.88 698.78 602.36 697.64 602.84 696.51 C 602.34 697.69 601.79 698.86 601.21 700.01 C 599.48 703.43 598.73 707.20 599.77 710.98 C 600.68 714.28 603.23 717.86 606.31 719.49 C 609.61 721.24 613.62 722.11 617.28 720.93 C 620.69 719.83 624.12 717.69 625.79 714.39 C 628.82 708.41 631.26 702.02 632.29 695.37 C 632.88 691.59 633.39 687.78 633.41 683.95 C 633.43 680.02 632.92 676.15 632.34 672.28 C 631.40 665.94 629.17 659.95 626.44 654.18 C 623.67 648.34 619.73 642.93 615.34 638.21 C 610.91 633.45 605.56 629.29 599.89 626.11 C 594.06 622.84 587.58 620.25 581.00 618.96 C 574.54 617.70 567.89 617.08 561.34 617.84 C 557.57 618.28 553.81 618.78 550.14 619.76 C 546.50 620.73 543.07 622.16 539.62 623.66 C 527.71 628.82 517.58 638.21 510.81 649.21 C 507.30 654.92 504.58 661.39 503.03 667.93 C 501.53 674.25 500.79 680.95 501.28 687.44 C 501.76 693.88 502.88 700.35 505.24 706.38 C 506.60 709.86 508.07 713.34 509.93 716.59 C 511.85 719.95 514.19 723.01 516.60 726.03 C 520.65 731.12 525.72 735.36 531.10 738.98 C 536.69 742.73 543.12 745.57 549.59 747.38 C 555.81 749.11 562.48 749.97 568.93 749.76 C 575.40 749.55 582.04 748.51 588.16 746.37 C 594.27 744.24 600.26 741.44 605.47 737.56 C 608.50 735.31 611.48 733.00 614.14 730.32 C 616.83 727.62 619.18 724.59 621.43 721.51 C 623.07 719.26 624.52 716.88 625.80 714.40 C 627.55 711.00 628.27 707.19 627.24 703.43 C 626.33 700.13 623.78 696.55 620.70 694.92 C 617.40 693.17 613.39 692.30 609.73 693.48 C 606.30 694.57 602.91 696.71 601.21 700.01 Z" fill="#25e362" fill-rule="nonzero" group-id="2,9,19" node-id="128" stroke="none" target-height="132.88995" target-width="132.63998" target-x="500.79" target-y="617.08"></path></g></g><g node-id="172"><g node-id="182"><path d="M 610.17 927.29 C 607.46 924.55 605.60 920.92 605.09 916.79 C 598.92 866.91 599.96 817.51 608.19 769.97 C 614.78 731.87 625.97 694.89 641.45 660.04 C 667.97 600.33 697.92 567.51 699.18 566.14 C 705.96 558.79 717.41 558.33 724.76 565.11 C 732.12 571.87 732.57 583.31 725.82 590.66 L 725.82 590.66 C 716.29 601.08 693.17 632.35 673.91 676.16 C 659.83 708.18 649.66 742.16 643.70 777.16 C 636.25 820.87 635.35 866.36 641.04 912.34 C 642.27 922.26 635.22 931.30 625.30 932.53 C 619.48 933.25 613.99 931.14 610.17 927.29 Z" fill="#bffdce" fill-rule="nonzero" group-id="2,10,20" node-id="136" stroke="none" target-height="374.91998" target-width="133.65002" target-x="598.92" target-y="558.33"></path><g node-id="186"><path d="M 620.24 917.22 C 619.73 916.69 619.25 916.14 618.79 915.56 C 619.53 916.52 620.27 917.48 621.02 918.44 C 620.12 917.24 619.37 915.97 618.75 914.60 C 619.23 915.73 619.71 916.87 620.19 918.00 C 619.52 916.38 619.07 914.73 618.83 913.00 C 619.00 914.26 619.17 915.52 619.34 916.78 C 615.23 883.35 614.24 849.55 616.76 815.96 C 617.46 806.60 618.44 797.27 619.68 787.96 C 619.51 789.22 619.34 790.48 619.17 791.74 C 623.49 759.63 631.04 727.96 641.83 697.40 C 644.86 688.82 648.15 680.33 651.67 671.94 C 651.19 673.07 650.71 674.21 650.23 675.34 C 661.78 647.96 675.90 621.56 692.92 597.18 C 695.86 592.97 698.89 588.82 702.03 584.76 C 701.29 585.72 700.55 586.68 699.80 587.64 C 702.05 584.73 704.36 581.85 706.75 579.04 C 708.26 577.27 709.75 575.51 711.58 574.07 C 710.62 574.81 709.66 575.55 708.70 576.30 C 709.94 575.38 711.24 574.62 712.66 574.01 C 711.53 574.49 710.39 574.97 709.26 575.45 C 710.82 574.82 712.40 574.40 714.07 574.17 C 712.81 574.34 711.55 574.51 710.29 574.68 C 711.78 574.52 713.26 574.52 714.75 574.68 C 713.49 574.51 712.23 574.34 710.97 574.17 C 712.64 574.40 714.23 574.83 715.80 575.46 C 714.67 574.98 713.53 574.50 712.40 574.02 C 713.83 574.65 715.14 575.42 716.39 576.36 C 715.43 575.62 714.47 574.88 713.51 574.13 C 714.76 575.12 715.86 576.23 716.85 577.48 C 716.11 576.52 715.37 575.56 714.62 574.60 C 715.54 575.83 716.30 577.14 716.91 578.55 C 716.43 577.42 715.95 576.28 715.47 575.15 C 716.10 576.70 716.52 578.29 716.75 579.95 C 716.58 578.69 716.41 577.43 716.24 576.17 C 716.40 577.66 716.40 579.13 716.24 580.62 C 716.41 579.36 716.58 578.10 716.75 576.84 C 716.52 578.51 716.09 580.10 715.46 581.66 C 715.94 580.53 716.42 579.39 716.90 578.26 C 716.27 579.68 715.50 581.00 714.57 582.25 C 715.31 581.29 716.05 580.33 716.80 579.37 C 715.20 581.39 713.40 583.26 711.76 585.25 C 709.12 588.48 706.57 591.79 704.07 595.13 C 699.10 601.77 694.43 608.65 689.99 615.65 C 677.08 636.03 666.28 657.57 657.01 679.83 C 647.40 702.88 639.84 726.78 634.38 751.15 C 628.57 777.06 625.03 803.56 623.71 830.08 C 622.40 856.43 623.37 882.87 626.44 909.07 C 626.75 911.68 627.12 914.22 626.82 916.85 C 626.99 915.59 627.16 914.33 627.33 913.07 C 627.10 914.69 626.68 916.24 626.07 917.76 C 626.55 916.63 627.03 915.49 627.51 914.36 C 626.86 915.84 626.06 917.21 625.09 918.49 C 625.83 917.53 626.57 916.57 627.32 915.61 C 626.41 916.74 625.41 917.75 624.28 918.67 C 625.24 917.93 626.20 917.19 627.16 916.44 C 625.87 917.44 624.49 918.26 622.99 918.92 C 624.12 918.44 625.26 917.96 626.39 917.48 C 624.82 918.12 623.22 918.54 621.54 918.78 C 622.80 918.61 624.06 918.44 625.32 918.27 C 623.74 918.44 622.20 918.43 620.62 918.24 C 621.88 918.41 623.14 918.58 624.40 918.75 C 622.88 918.52 621.44 918.13 620.01 917.57 C 621.14 918.05 622.28 918.53 623.41 919.01 C 621.85 918.34 620.41 917.50 619.06 916.47 C 620.02 917.21 620.98 917.95 621.94 918.70 C 621.33 918.24 620.78 917.75 620.24 917.22 C 614.92 912.00 605.34 911.52 600.11 917.22 C 594.93 922.86 594.43 931.78 600.11 937.35 C 606.04 943.17 613.50 946.26 621.74 946.86 C 628.02 947.31 635.33 945.35 640.52 941.77 C 646.81 937.43 651.14 931.86 653.76 924.68 C 655.91 918.78 655.31 912.97 654.63 906.93 C 651.88 882.50 650.95 857.85 652.00 833.28 C 652.59 819.58 653.79 805.92 655.61 792.33 C 655.44 793.59 655.27 794.85 655.10 796.11 C 659.12 766.43 666.13 737.17 676.13 708.94 C 678.93 701.05 681.96 693.25 685.21 685.54 C 684.73 686.67 684.25 687.81 683.77 688.94 C 694.13 664.48 706.76 640.89 721.82 618.99 C 724.70 614.80 727.69 610.67 730.80 606.64 C 730.06 607.60 729.32 608.56 728.57 609.52 C 730.91 606.50 733.33 603.58 735.86 600.72 C 743.42 592.20 746.85 580.63 743.56 569.47 C 740.38 558.71 731.49 549.69 720.46 547.07 C 709.41 544.44 697.48 547.50 689.46 555.68 C 686.49 558.71 683.85 562.14 681.23 565.47 C 674.07 574.56 667.31 583.94 661.02 593.65 C 641.75 623.43 626.41 655.78 614.56 689.18 C 601.57 725.81 593.40 763.96 589.44 802.60 C 587.46 821.88 586.64 841.28 586.93 860.66 C 587.08 870.47 587.51 880.28 588.22 890.07 C 588.57 894.88 588.98 899.69 589.46 904.48 C 590.05 910.35 590.35 916.53 591.64 922.28 C 592.91 927.94 596.10 933.17 600.08 937.32 C 605.24 942.71 615.09 942.90 620.21 937.32 C 625.55 931.57 625.75 922.97 620.24 917.22 Z" fill="#25e362" fill-rule="nonzero" group-id="2,10,20,24" node-id="140" stroke="none" target-height="402.87" target-width="160.20996" target-x="586.64" target-y="544.44"></path></g></g></g><g node-id="173"><path d="M 874.12 498.50 C 874.12 581.98 806.44 649.66 722.96 649.66 C 639.48 649.66 571.80 581.98 571.80 498.50 C 571.80 415.02 639.48 347.34 722.96 347.34 C 806.44 347.34 874.12 415.02 874.12 498.50 Z" fill="#fd3d4b" fill-rule="nonzero" group-id="2,11" node-id="147" stroke="none" target-height="302.31998" target-width="302.32" target-x="571.8" target-y="347.34"></path><g node-id="183"><path d="M 845.33 559.97 C 841.00 568.44 835.91 576.49 830.09 584.01 C 830.83 583.05 831.57 582.09 832.32 581.13 C 824.52 591.18 815.48 600.21 805.42 608.00 C 806.38 607.26 807.34 606.52 808.30 605.77 C 797.95 613.75 786.60 620.37 774.56 625.46 C 775.69 624.98 776.83 624.50 777.96 624.02 C 765.52 629.25 752.44 632.81 739.07 634.62 C 740.33 634.45 741.59 634.28 742.85 634.11 C 729.58 635.87 716.13 635.87 702.86 634.11 C 704.12 634.28 705.38 634.45 706.64 634.62 C 693.37 632.82 680.38 629.26 668.04 624.07 C 669.17 624.55 670.31 625.03 671.44 625.51 C 659.31 620.37 647.86 613.69 637.43 605.63 C 638.39 606.37 639.35 607.11 640.31 607.86 C 630.26 600.06 621.23 591.02 613.44 580.96 C 614.18 581.92 614.92 582.88 615.67 583.84 C 607.69 573.49 601.07 562.14 595.98 550.10 C 596.46 551.23 596.94 552.37 597.42 553.50 C 592.19 541.06 588.63 527.98 586.82 514.61 C 586.99 515.87 587.16 517.13 587.33 518.39 C 585.57 505.12 585.57 491.67 587.33 478.40 C 587.16 479.66 586.99 480.92 586.82 482.18 C 588.62 468.91 592.18 455.92 597.37 443.58 C 596.89 444.71 596.41 445.85 595.93 446.98 C 601.07 434.85 607.75 423.40 615.81 412.97 C 615.07 413.93 614.33 414.89 613.58 415.85 C 621.38 405.80 630.42 396.77 640.48 388.98 C 639.52 389.72 638.56 390.46 637.60 391.21 C 647.95 383.23 659.30 376.61 671.34 371.52 C 670.21 372.00 669.07 372.48 667.94 372.96 C 680.38 367.73 693.46 364.17 706.83 362.36 C 705.57 362.53 704.31 362.70 703.05 362.87 C 716.32 361.11 729.77 361.11 743.04 362.87 C 741.78 362.70 740.52 362.53 739.26 362.36 C 752.53 364.16 765.52 367.72 777.86 372.91 C 776.73 372.43 775.59 371.95 774.46 371.47 C 786.59 376.61 798.04 383.29 808.47 391.35 C 807.51 390.61 806.55 389.87 805.59 389.12 C 815.64 396.92 824.67 405.96 832.46 416.02 C 831.72 415.06 830.98 414.10 830.23 413.14 C 838.21 423.49 844.83 434.84 849.92 446.88 C 849.44 445.75 848.96 444.61 848.48 443.48 C 853.71 455.92 857.27 469.00 859.08 482.37 C 858.91 481.11 858.74 479.85 858.57 478.59 C 860.33 491.86 860.33 505.31 858.57 518.58 C 858.74 517.32 858.91 516.06 859.08 514.80 C 857.28 528.07 853.72 541.06 848.53 553.40 C 849.01 552.27 849.49 551.13 849.97 550.00 C 848.54 553.38 846.99 556.70 845.33 559.97 C 843.59 563.39 842.85 567.16 843.89 570.94 C 844.80 574.24 847.35 577.82 850.43 579.45 C 853.73 581.20 857.74 582.07 861.40 580.89 C 864.81 579.79 868.23 577.65 869.91 574.35 C 877.64 559.14 883.34 542.83 886.02 525.96 C 887.42 517.11 888.35 508.19 888.38 499.23 C 888.42 490.45 887.56 481.75 886.29 473.06 C 883.92 456.76 878.75 441.07 871.67 426.22 C 864.60 411.38 855.03 397.65 843.87 385.61 C 832.39 373.23 818.73 362.56 804.00 354.33 C 789.08 345.99 772.73 339.75 755.95 336.43 C 739.66 333.21 722.92 332.17 706.40 334.00 C 697.66 334.97 688.98 336.40 680.48 338.65 C 671.95 340.91 663.75 344.01 655.67 347.51 C 640.55 354.05 626.70 363.13 614.23 373.86 C 601.48 384.83 590.49 398.06 581.73 412.40 C 576.89 420.32 572.95 428.67 569.41 437.24 C 566.37 444.61 563.92 452.21 562.08 459.97 C 558.25 476.11 556.71 493.00 557.94 509.56 C 559.16 525.93 562.50 542.17 568.50 557.47 C 571.69 565.61 575.32 573.59 579.68 581.18 C 584.07 588.81 589.17 595.93 594.65 602.80 C 605.11 615.94 617.84 627.20 631.80 636.51 C 646.10 646.04 662.18 653.31 678.73 657.92 C 694.80 662.40 711.81 664.46 728.48 663.83 C 744.84 663.22 761.30 660.30 776.76 654.88 C 792.24 649.45 807.04 641.99 820.24 632.21 C 827.35 626.94 834.17 621.31 840.40 615.02 C 846.72 608.64 852.41 601.67 857.66 594.40 C 862.25 588.05 866.34 581.33 869.91 574.35 C 871.65 570.94 872.38 567.15 871.35 563.38 C 870.44 560.08 867.89 556.50 864.81 554.87 C 861.51 553.12 857.50 552.25 853.84 553.43 C 850.42 554.54 847.02 556.68 845.33 559.97 Z" fill="#fd9798" fill-rule="nonzero" group-id="2,11,21" node-id="151" stroke="none" target-height="332.29" target-width="331.70996" target-x="556.71" target-y="332.17"></path></g></g><g node-id="174"><path d="M 794.95 517.16 C 794.95 554.32 764.83 584.44 727.67 584.44 C 690.51 584.44 660.39 554.32 660.39 517.16 C 660.39 480.00 690.51 449.88 727.67 449.88 C 764.83 449.88 794.95 480.00 794.95 517.16 Z" fill="#fddcdc" fill-rule="nonzero" group-id="2,12" node-id="157" stroke="none" target-height="134.56" target-width="134.56" target-x="660.39" target-y="449.88"></path><g node-id="184"><path d="M 775.32 540.53 C 773.41 544.25 771.18 547.79 768.63 551.11 C 769.37 550.15 770.11 549.19 770.86 548.23 C 767.34 552.77 763.28 556.84 758.74 560.35 C 759.70 559.61 760.66 558.87 761.62 558.12 C 757.06 561.61 752.09 564.52 746.81 566.77 C 747.94 566.29 749.08 565.81 750.21 565.33 C 744.64 567.68 738.79 569.28 732.80 570.10 C 734.06 569.93 735.32 569.76 736.58 569.59 C 730.64 570.37 724.62 570.38 718.68 569.59 C 719.94 569.76 721.20 569.93 722.46 570.10 C 716.58 569.29 710.84 567.72 705.36 565.42 C 706.49 565.90 707.63 566.38 708.76 566.86 C 703.39 564.58 698.34 561.64 693.71 558.09 C 694.67 558.83 695.63 559.57 696.59 560.32 C 692.05 556.80 687.98 552.74 684.47 548.20 C 685.21 549.16 685.95 550.12 686.70 551.08 C 683.21 546.52 680.30 541.55 678.05 536.27 C 678.53 537.40 679.01 538.54 679.49 539.67 C 677.14 534.10 675.54 528.25 674.72 522.26 C 674.89 523.52 675.06 524.78 675.23 526.04 C 674.45 520.10 674.44 514.08 675.23 508.14 C 675.06 509.40 674.89 510.66 674.72 511.92 C 675.53 506.04 677.10 500.30 679.40 494.82 C 678.92 495.95 678.44 497.09 677.96 498.22 C 680.24 492.85 683.18 487.80 686.73 483.17 C 685.99 484.13 685.25 485.09 684.50 486.05 C 688.02 481.51 692.08 477.44 696.62 473.93 C 695.66 474.67 694.70 475.41 693.74 476.16 C 698.30 472.67 703.27 469.76 708.55 467.51 C 707.42 467.99 706.28 468.47 705.15 468.95 C 710.72 466.60 716.57 465.00 722.56 464.18 C 721.30 464.35 720.04 464.52 718.78 464.69 C 724.72 463.91 730.74 463.90 736.68 464.69 C 735.42 464.52 734.16 464.35 732.90 464.18 C 738.78 464.99 744.52 466.56 750.00 468.86 C 748.87 468.38 747.73 467.90 746.60 467.42 C 751.97 469.70 757.02 472.64 761.65 476.19 C 760.69 475.45 759.73 474.71 758.77 473.96 C 763.31 477.48 767.38 481.54 770.89 486.08 C 770.15 485.12 769.41 484.16 768.66 483.20 C 772.15 487.76 775.06 492.73 777.31 498.01 C 776.83 496.88 776.35 495.74 775.87 494.61 C 778.22 500.18 779.82 506.03 780.64 512.02 C 780.47 510.76 780.30 509.50 780.13 508.24 C 780.91 514.18 780.92 520.20 780.13 526.14 C 780.30 524.88 780.47 523.62 780.64 522.36 C 779.83 528.24 778.26 533.98 775.96 539.46 C 776.44 538.33 776.92 537.19 777.40 536.06 C 776.75 537.58 776.06 539.07 775.32 540.53 C 773.59 543.95 772.84 547.72 773.88 551.50 C 774.79 554.80 777.34 558.38 780.42 560.01 C 783.72 561.76 787.73 562.63 791.39 561.45 C 794.80 560.35 798.23 558.21 799.90 554.91 C 803.64 547.53 806.58 539.64 807.87 531.44 C 808.60 526.83 809.18 522.18 809.20 517.50 C 809.22 512.90 808.66 508.37 808.00 503.82 C 806.85 495.88 804.16 488.34 800.73 481.11 C 797.31 473.90 792.53 467.23 787.12 461.39 C 781.57 455.39 774.88 450.18 767.75 446.19 C 760.54 442.15 752.56 439.01 744.43 437.41 C 736.48 435.84 728.30 435.16 720.23 436.06 C 715.69 436.57 711.16 437.22 706.73 438.38 C 702.28 439.55 698.06 441.26 693.85 443.08 C 679.02 449.49 666.40 461.09 658.00 474.81 C 653.70 481.83 650.39 489.74 648.47 497.75 C 646.58 505.65 645.70 514.01 646.31 522.13 C 646.91 530.07 648.36 538.01 651.26 545.44 C 652.92 549.70 654.75 553.93 657.03 557.90 C 659.32 561.89 662.07 565.55 664.93 569.14 C 669.97 575.48 676.23 580.82 682.95 585.32 C 686.02 587.37 689.25 589.17 692.60 590.70 C 696.87 592.64 701.23 594.44 705.75 595.70 C 713.54 597.88 721.87 598.94 729.96 598.65 C 737.93 598.37 746.06 597.04 753.60 594.41 C 761.14 591.78 768.46 588.28 774.89 583.52 C 778.56 580.81 782.14 577.98 785.36 574.75 C 788.66 571.44 791.57 567.75 794.31 563.98 C 796.40 561.11 798.25 558.07 799.87 554.91 C 801.61 551.51 802.34 547.70 801.31 543.94 C 800.40 540.64 797.85 537.06 794.77 535.43 C 791.47 533.68 787.46 532.81 783.80 533.99 C 780.41 535.10 777.01 537.23 775.32 540.53 Z" fill="#fd9f9f" fill-rule="nonzero" group-id="2,12,22" node-id="161" stroke="none" target-height="163.78" target-width="163.51996" target-x="645.7" target-y="435.16"></path></g></g></g></svg>